# WaveFront *.obj file (generated by CINEMA 4D)

mtllib ./Cube.mtl

v -0.5 -0.5 0.5
v 0.5 -0.5 0.5
v -0.5 0.5 0.5
v 0.5 0.5 0.5
v -0.5 0.5 -0.5
v 0.5 0.5 -0.5
v -0.5 -0.5 -0.5
v 0.5 -0.5 -0.5
# 8 vertices

vn 0 0 1
vn 0 1 0
vn 0 0 -1
vn 0 -1 0
vn 1 0 0
vn -1 0 0
# 6 normals

vt 0 0 0
vt 0 1 0
vt 1 1 0
vt 1 0 0
# 4 texture coordinates

o Cube_0
usemtl Default
f 4/3/1 3/2/1 1/1/1
f 2/4/1 4/3/1 1/1/1
f 6/3/2 5/2/2 3/1/2
f 4/4/2 6/3/2 3/1/2
f 8/3/3 7/2/3 5/1/3
f 6/4/3 8/3/3 5/1/3
f 2/3/4 1/2/4 7/1/4
f 8/4/4 2/3/4 7/1/4
f 6/3/5 4/2/5 2/1/5
f 8/4/5 6/3/5 2/1/5
f 3/3/6 5/2/6 7/1/6
f 1/4/6 3/3/6 7/1/6

