# WaveFront *.obj file (generated by CINEMA 4D)

mtllib ./DoorLongRight.mtl

v 20 -12 8
v 20 4 8
v -28 -12 8
v -28 4 8
v -28 -12 0
v -28 0 8
v -28 0 0
v 28 12 0
v -28 12 0
v 20 4 -8
v -28 4 -8
v 20 -12 -8
v -28 -12 -8
v -28 0 -8
# 14 vertices

vn 0 0 1
vn -1 0 0
vn 0 0.70710676908493 0.70710676908493
vn 0 0 -1
vn 0 0.70710676908493 -0.70710676908493
# 5 normals

vt 0 1 0
vt 1 0 0
vt 1 1 0
vt 0 0 0
# 4 texture coordinates

o DoorLongRight
usemtl Default
f 3/3/1 1/2/1 4/1/1
f 7/3/2 5/2/2 6/1/2
f 4/3/3 2/2/3 9/1/3
f 1/2/1 2/4/1 4/1/1
f 5/2/2 3/4/2 6/1/2
f 2/2/3 8/4/3 9/1/3

usemtl Default_1
f 12/3/4 13/2/4 10/1/4
f 9/3/5 8/2/5 11/1/5
f 14/3/2 13/2/2 7/1/2
f 13/2/4 11/4/4 10/1/4
f 8/2/5 10/4/5 11/1/5
f 13/2/2 5/4/2 7/1/2

