# WaveFront *.obj file (generated by CINEMA 4D)

mtllib ./DoorLongMid.mtl

v -4 6 0
v -4 -2 8
v 4 6 0
v 4 -2 8
v 4 -6 8
v -4 -6 8
v 4 -6 0
v -4 -6 0
v 4 -2 -8
v -4 -2 -8
v -4 -6 -8
v 4 -6 -8
# 12 vertices

vn 0 0.70710676908493 0.70710676908493
vn 0 0 1
vn 0 -1 0
vn 0 0.70710676908493 -0.70710676908493
vn 0 0 -1
# 5 normals

vt 0.46666669845581 0.20000004768372 0
vt 0.53333342075348 0.20000004768372 0
vt 0.5 0.13333332538605 0
vt 0.48333328962326 0.13333332538605 0
vt 0.46666669845581 0.13333332538605 0
vt 0 1 0
vt 1 0 0
vt 1 1 0
vt 0 0 0
# 9 texture coordinates

o DoorLongMid
usemtl Default
f 4/3/1 3/2/1 1/1/1
f 1/1/1 2/5/1 4/4/1
f 6/8/2 5/7/2 2/6/2
f 5/8/3 6/7/3 7/6/3
f 5/7/2 4/9/2 2/6/2
f 6/7/3 8/9/3 7/6/3
f 10/3/4 1/2/4 3/1/4
f 3/1/4 9/5/4 10/4/4
f 12/8/5 11/7/5 9/6/5
f 11/8/3 12/7/3 8/6/3
f 11/7/5 10/9/5 9/6/5
f 12/7/3 7/9/3 8/6/3

