# WaveFront *.obj file (generated by CINEMA 4D)

mtllib ./DoorLongLeft.mtl

v -20 4 8
v 28 4 8
v -20 -12 8
v 28 -12 8
v -28 12 0
v 28 12 0
v 28 0 8
v 28 0 0
v 28 -12 0
v -20 -12 -8
v -20 4 -8
v 28 -12 -8
v 28 4 -8
v 28 0 -8
# 14 vertices

vn 0 0 1
vn 0 0.70710676908493 0.70710676908493
vn 1 0 0
vn 0 0 -1
vn 0 0.70710676908493 -0.70710676908493
# 5 normals

vt 0 1 0
vt 1 0 0
vt 1 1 0
vt 0 0 0
# 4 texture coordinates

o DoorLongLeft
usemtl Default
f 3/3/1 4/2/1 1/1/1
f 6/3/2 5/2/2 2/1/2
f 7/3/3 4/2/3 8/1/3
f 4/2/1 2/4/1 1/1/1
f 5/2/2 1/4/2 2/1/2
f 4/2/3 9/4/3 8/1/3
f 12/3/4 10/2/4 13/1/4
f 8/3/3 9/2/3 14/1/3
f 13/3/5 11/2/5 6/1/5
f 10/2/4 11/4/4 13/1/4
f 9/2/3 12/4/3 14/1/3
f 11/2/5 5/4/5 6/1/5

