# WaveFront *.obj file (generated by CINEMA 4D)

mtllib ./DoorShortTop.mtl

v 7.99997997283936 4 23.99999809265137
v 7.99997997283936 4 -15.99999713897705
v 7.99997997283936 -12 23.99999809265137
v 7.99997997283936 -12 -15.99999713897705
v -0.00002002716064 12 -23.99999809265137
v -0.00002002716064 12 23.99999809265137
v -0.00002002716064 0 23.99999809265137
v 7.99997997283936 0 23.99999809265137
v -0.00002002716064 -12 23.99999809265137
v -7.99997997283936 -12 24.00000190734863
v -7.99997997283936 4 24.00000190734863
v -7.99997997283936 -12 -16.00000190734863
v -7.99997997283936 4 -16.00000190734863
v 0.00002002716064 12 24.00000190734863
v 0.00002002716064 12 -24.00000190734863
v 0.00002002716064 0 24.00000190734863
v -7.99997997283936 0 24.00000190734863
v 0.00002002716064 -12 24.00000190734863
# 18 vertices

vn 1 0 0
vn 0.70710676908493 0.70710676908493 0
vn 0 0 1
vn -1 0 0
vn -0.70710676908493 0.70710676908493 0
# 5 normals

vt 0 1 0
vt 1 0 0
vt 1 1 0
vt 0 0 0
# 4 texture coordinates

o DoorShortTop
usemtl Default
f 3/3/1 4/2/1 1/1/1
f 1/3/2 2/2/2 6/1/2
f 7/3/3 9/2/3 8/1/3
f 4/2/1 2/4/1 1/1/1
f 2/2/2 5/4/2 6/1/2
f 9/2/3 3/4/3 8/1/3

usemtl Default_1
f 11/3/4 13/2/4 10/1/4
f 13/3/5 11/2/5 15/1/5
f 17/3/3 10/2/3 16/1/3
f 13/2/4 12/4/4 10/1/4
f 11/2/5 14/4/5 15/1/5
f 10/2/3 18/4/3 16/1/3

