# WaveFront *.obj file (generated by CINEMA 4D)

mtllib ./Gate.mtl

v 3.99999809265137 -0.00000286102295 -0.99999958276749
v 3.99999809265137 -0.00000286102295 0.49999979138374
v 3.99999809265137 12 0.49999979138374
v 3.99999809265137 12 -0.99999958276749
v -3.99999809265137 -0.00000286102295 0.49999979138374
v -3.99999809265137 -0.00000286102295 -0.99999958276749
v -3.99999809265137 12 -0.99999958276749
v -3.99999809265137 12 0.49999979138374
v 5.99999809265137 -0.00000286102295 0.49999979138374
v 5.99999809265137 -0.00000286102295 -0.99999958276749
v -5.99999809265137 -0.00000286102295 0.49999979138374
v -5.99999809265137 -0.00000286102295 -0.99999958276749
v 5.99999809265137 14 -0.99999958276749
v 5.99999809265137 14 0.49999979138374
v -5.99999809265137 14 0.49999979138374
v -5.99999809265137 14 -0.99999958276749
v 3.99999809265137 14 -0.99999958276749
v -3.99999809265137 14 -0.99999958276749
v 3.99999809265137 14 0.49999979138374
v -3.99999809265137 14 0.49999979138374
# 20 vertices

vn -1 0 0
vn 0 0 0
vn 1 0 0
vn 0 -1 0
vn 0 1 0
vn 0 0 -1
vn 0 0 1
# 7 normals

vt 1 -3.62500190734863 0
vt 1.75000095367432 -3.62500190734863 0
vt 1.75000095367432 2.375 0
vt 0 1 0
vt 1 2.375 0
vt -0.74999988079071 -3.62500095367432 0
vt -0.00000005215404 -3.62500095367432 0
vt -0.0000002980232 2.375 0
vt -0.75000017881393 2.375 0
vt 1.75000095367432 -1.375 0
vt 1.75000095367432 2.62500095367432 0
vt 1 2.62500095367432 0
vt 1 -1.375 0
vt 3.5 0.25000011920929 0
vt 2.5 0.25000011920929 0
vt 2.5 0.99999982118607 0
vt 3.5 0.99999982118607 0
vt -1.49999904632568 0.25000011920929 0
vt -2.49999904632568 0.25000011920929 0
vt -2.49999904632568 0.99999982118607 0
vt -1.49999904632568 0.99999982118607 0
vt 0.74999988079071 -0.00000047683716 0
vt 0.0000002682209 -0.00000047683716 0
vt 0.00000026822099 7.00000095367432 0
vt 0.74999988079071 7.00000190734863 0
vt 0.99999970197678 0.00000095367432 0
vt 0.25000008940697 0.00000095367432 0
vt 0.25000008940697 7.00000095367432 0
vt 0.99999970197678 7 0
vt 0.0000002086164 -2.49999904632568 0
vt 0.0000002086162 3.49999809265137 0
vt 0.74999988079071 3.49999904632568 0
vt 0.74999988079071 -2.49999904632568 0
vt 3.5 -0.00000953674316 0
vt 2.5 -0.00000953674316 0
vt 2.49999904632568 7.00000095367432 0
vt 3.49999809265137 7.00000095367432 0
vt 2.49999904632568 6 0
vt -1.49999904632568 7.00000095367432 0
vt -1.49999904632568 6 0
vt -1.49999797344208 -0.00000953674316 0
vt -2.49999809265137 7.00000095367432 0
vt -2.49999690055847 -0.00000953674316 0
# 43 texture coordinates

o Mesh3.1
usemtl Wall0
f 1/1/1 2/2/1 3/3/1
f 1/1/1 3/3/1 4/5/1
f 5/6/3 6/7/3 7/8/3
f 5/6/3 7/8/3 8/9/3
f 3/10/4 8/11/4 7/12/4
f 3/10/4 7/12/4 4/13/4
f 9/14/4 2/15/4 1/16/4
f 9/14/4 1/16/4 10/17/4
f 5/18/4 11/19/4 12/20/4
f 5/18/4 12/20/4 6/21/4
f 9/22/3 10/23/3 13/24/3
f 9/22/3 13/24/3 14/25/3
f 12/26/1 11/27/1 15/28/1
f 12/26/1 15/28/1 16/29/1
f 13/30/5 16/31/5 15/32/5
f 13/30/5 15/32/5 14/33/5

usemtl Wall1d
f 10/34/6 1/35/6 17/36/6
f 10/34/6 17/36/6 13/37/6
f 4/38/6 18/39/6 17/36/6
f 4/38/6 7/40/6 18/39/6
f 6/41/6 16/42/6 18/39/6
f 6/41/6 12/43/6 16/42/6
f 2/41/7 9/43/7 14/42/7
f 2/41/7 14/42/7 19/39/7
f 8/38/7 3/40/7 19/39/7
f 8/38/7 19/39/7 20/36/7
f 11/34/7 5/35/7 20/36/7
f 11/34/7 20/36/7 15/37/7

