# WaveFront *.obj file (generated by CINEMA 4D)

mtllib ./Pyramid_Level1.mtl

v 1.75 4.5 1.75
v -1.75 4.5 1.75
v -1 6 0.99999982118607
v 1 6 0.99999982118607
v 1.75 4.5 -1.75
v 1 6 -1
v -1.75 4.5 -1.75
v -1 6 -1
# 8 vertices

vn 0 0.44720110297203 0.89443343877792
vn 0.89443343877792 0.44720110297203 0
vn -0.89443343877792 0.44720110297203 0
vn 0 0.44720110297203 -0.89443343877792
vn 0 1 0
# 5 normals

vt -0.0000001043081 0 0
vt -1.75000095367432 0 0
vt -1.375 0.77324402332306 0
vt -0.37499961256981 0.77324402332306 0
vt 2.875 0 0
vt 1.125 0 0
vt 1.49999904632568 0.79634058475494 0
vt 2.49999904632568 0.79634058475494 0
vt -0.12500010430813 0 0
vt -1.875 0 0
vt -1.5 0.79634058475494 0
vt -0.49999961256981 0.79634058475494 0
vt 1 0.00000011920929 0
vt 0.21428570151329 1 0
vt 0.78571432828903 1 0
vt 1.5 1.375 0
vt 1.5 2.375 0
vt 2.5 2.375 0
vt 2.5 1.375 0
# 19 texture coordinates

o Mesh5_0
usemtl Default
f 3/3/1 2/2/1 1/1/1
f 4/4/1 3/3/1 1/1/1
f 4/7/2 1/6/2 5/5/2
f 6/8/2 4/7/2 5/5/2
f 8/11/3 7/10/3 2/9/3
f 3/12/3 8/11/3 2/9/3
f 6/14/4 5/1/4 7/13/4
f 8/15/4 6/14/4 7/13/4
f 8/18/5 3/17/5 4/16/5
f 6/19/5 8/18/5 4/16/5

v 1.5 4 1.5
v -1.5 4 1.5
v 1.5 4 -1.5
v -1.5 4 -1.5
# 4 vertices

vn 0 -0.44720110297203 0.89443343877792
vn 0.89443343877792 -0.44720110297203 0
vn -0.89443343877792 -0.44720110297203 0
vn 0 -0.44720110297203 -0.89443343877792
# 4 normals

vt 1.25 0.25 0
vt -0.25 0.25 0
vt -0.375 0.5 0
vt 1.375 0.5 0
vt -0.37500008940697 0.47500014305115 0
vt 1.375 0.47500014305115 0
# 6 texture coordinates

o Mesh4_0
usemtl Default
f 2/22/6 10/21/6 9/20/6
f 1/23/6 2/22/6 9/20/6
f 1/22/7 9/21/7 11/20/7
f 5/23/7 1/22/7 11/20/7
f 7/22/8 12/21/8 10/20/8
f 2/23/8 7/22/8 10/20/8
f 5/24/9 11/21/9 12/20/9
f 7/25/9 5/24/9 12/20/9

v 2 4 2
v -2 4 2
v -2 4 1.5
v 2 4 1.5
v 1.5 4 -2
v 2 4 -2
v -2 4 -2
v -1.5 4 -2
# 8 vertices

# 0 normal

vt 1.5 1.5 0
vt -0.49999991059303 1.5 0
vt -0.49999991059303 1.25 0
vt 1.5 1.25 0
vt 1.25 1.25 0
vt 1.25 -0.49999976158142 0
vt 1.5 -0.49999976158142 0
vt -0.25 1.25 0
vt -0.49999991059303 -0.5 0
vt -0.24999989569187 -0.5 0
vt 1.25 -0.25 0
vt -0.24999989569187 -0.25 0
# 12 texture coordinates

o Mesh3_0
usemtl Default
f 15/28/5 14/27/5 13/26/5
f 16/29/5 15/28/5 13/26/5
f 17/31/5 9/30/5 16/29/5
f 18/32/5 17/31/5 16/29/5
f 19/34/5 15/28/5 10/33/5
f 20/35/5 19/34/5 10/33/5
f 17/31/5 20/35/5 11/36/5
f 20/35/5 12/37/5 11/36/5

v 4 0 -4
v 4 0 4
v -4 0 4
v -4 0 -4
# 4 vertices

# 0 normal

vt 2.5 0 0
vt -1.5 0 0
vt -0.50000011920929 2.19615983963013 0
vt 1.5 2.19615983963013 0
# 4 texture coordinates

o Mesh2_0
usemtl Default
f 13/40/2 22/39/2 21/38/2
f 18/41/2 13/40/2 21/38/2
f 19/40/3 24/39/3 23/38/3
f 14/41/3 19/40/3 23/38/3

# 0 vertex

# 0 normal

vt 3.25 0 0
vt -0.75 0 0
vt 0.25000008940697 2.19615983963013 0
vt 2.25 2.19615983963013 0
vt 1.75 0 0
vt -2.25 0 0
vt -1.25 2.19615983963013 0
vt 0.74999982118607 2.19615983963013 0
# 8 texture coordinates

o Mesh1_0
usemtl Default
f 14/44/1 23/43/1 22/42/1
f 13/45/1 14/44/1 22/42/1
f 18/48/4 21/47/4 24/46/4
f 19/49/4 18/48/4 24/46/4

