# WaveFront *.obj file (generated by CINEMA 4D)

mtllib ./Ship.mtl

v 0.43965509533882 0 -0.1443963944912
v 0.00000017881391 0 -2.5625
v -0.0000001026525 0.35416668653488 -0.20138870179653
v 0.49999991059303 0 0.1875
v 0.38709661364555 0.04233876988292 -0.15120950341225
v -0.0000001192093 0.375 -0.0625
v -0.43965521454811 0 -0.14439660310745
v -0.44196438789368 0 -0.13169650733471
v -0.50000011920929 0 0.1875
v -0.38709679245949 0.04233878850937 -0.15120969712734
v 1.1875 -0.25 0.18750040233135
v 0.87499982118607 0 0.18750029802322
v 2.0625 -0.375 1.4375
v -1.1875 -0.25 0.18749989569187
v -0.87500041723251 0 0.18749989569187
v -2.0625 -0.375 1.4375
# 16 vertices

vn 0.63216531276703 0.7662610411644 -0.1149390861392
vn 0.63216531276703 0.76626110076904 -0.11493910104036
vn 0 0 0
vn 0.63216531276703 0.76626110076904 -0.11493910849094
vn 0.63216537237167 0.76626098155975 -0.11493922770023
vn 0.63216519355774 0.76626116037369 -0.11493898928165
vn -0.63216537237167 0.76626098155975 -0.11493922024965
vn -0.63216537237167 0.7662610411644 -0.11493898928165
vn -0.63216531276703 0.7662610411644 -0.11493922770023
vn -0.63216537237167 0.7662610411644 -0.11493896692991
vn -0.63216537237167 0.7662610411644 -0.11493916064501
vn -0.63216537237167 0.76626116037369 -0.11493845283985
vn 0.00000079472875 0.00000057617893 -1
vn 0.5879173874855 0.73489701747894 -0.33805257081985
vn 0.0000002781548 -0.00000034769303 -1
vn -0.58791792392731 0.7348964214325 -0.33805286884308
# 16 normals

vt 0.75367558002472 0.10070312023163 0
vt -0.42740958929062 0.20234429836273 0
vt 0.70877301692963 0.33448076248169 0
vt 0 1 0
vt 0.91578531265259 0.08675229549408 0
vt 0.74830782413483 0.12865006923676 0
vt 0.77560722827911 0.34225356578827 0
vt 0.73670887947083 -0.23040843009949 0
vt -0.11111590266228 0.4768443107605 0
vt 0.06523703783751 0.61709630489349 0
vt 0.0257387496531 0.66694951057434 0
vt -0.11556869745255 0.4805588722229 0
vt -0.22748400270939 0.57391822338104 0
vt -0.09003380686045 0.49361073970795 0
vt 0.34019568562508 0.00688421726227 0
vt 0.62128061056137 0.11107432842255 0
vt 0.4682000875473 0.11693215370178 0
vt -0.4414686858654 -0.34430027008057 0
vt 0.17156189680099 0.01077830791473 0
vt 0.2119362950325 0.14316499233246 0
# 20 texture coordinates

o Mesh1
usemtl Blue1
f 1/1/1 2/2/1 3/3/2
f 4/5/4 5/6/5 3/3/2
f 4/5/4 3/3/2 6/7/6
f 2/8/7 7/9/7 3/10/8
f 6/11/9 3/10/8 8/12/10
f 8/12/10 9/13/11 6/11/9
f 3/10/8 10/14/12 8/12/10
f 11/15/13 4/16/13 12/17/13
f 13/18/14 11/19/14 12/20/14
f 9/16/15 14/15/15 15/17/15
f 14/19/16 16/18/16 15/20/16

v -0.00000017881391 0 0.4375
# 1 vertex

vn 0.28734785318375 0.7662610411644 0.57469582557678
vn -0.28734791278839 0.7662610411644 0.57469570636749
vn -0.00000022836385 0.95782619714737 0.28734815120697
vn -0.00000012179376 0.95782631635666 0.28734776377678
# 4 normals

vt 0.5 -0.08061218261719 0
vt 0.25 0 0
vt 0.50962322950363 0.18139398097992 0
vt 0.0568606108427 0.06606340408325 0
vt -0.16798910498619 0.08114218711853 0
vt -0.07553741335869 0.25379157066345 0
vt 0.49301511049271 0.03975510597229 0
vt 1.39729201793671 -0.13479495048523 0
vt 0.63036161661148 0.10673367977142 0
# 9 texture coordinates

o Mesh2
usemtl Blue0
f 17/21/17 4/22/17 6/23/17
f 9/24/18 17/25/18 6/26/18
f 4/27/19 13/28/19 12/29/19
f 16/28/20 9/27/20 15/29/20

v -0.0000001192093 -0.125 -0.0625
# 1 vertex

vn 0.26484882831573 -0.9630868434906 -0.04815430939198
vn -0.26484888792038 -0.9630868434906 -0.04815437272191
vn 0.12038584053516 -0.9630868434906 0.24077172577381
vn -0.12038585543633 -0.9630868434906 0.24077169597149
vn -0.33819460868835 -0.93003511428833 0.14373277127743
vn 0.33819460868835 -0.93003511428833 0.14373271167278
# 6 normals

vt 0.76750111579895 0.28280091285706 0
vt -0.42835029959679 0.19109618663788 0
vt 0.73028272390366 -0.23920774459839 0
vt -0.00614722585306 0.61836802959442 0
vt 0.48328301310539 0.12618696689606 0
vt -0.07614094763994 0.21085810661316 0
vt 0.87762302160263 0.16810476779938 0
vt 1.4548100233078 -0.31485486030579 0
vt 0.875 0.5 0
# 9 texture coordinates

o Mesh3
usemtl Gray0
f 18/30/21 2/31/21 4/5/21
f 2/32/22 18/33/22 9/13/22
f 18/34/23 4/22/23 17/21/23
f 9/24/24 18/35/24 17/25/24
f 11/36/25 13/37/25 4/38/25
f 16/37/26 14/36/26 9/38/26

v 0.62499982118607 0.875 0.56250011920929
v 0.44856441020966 -0.00717697991058 -0.14324149489403
v 0.37499991059303 -0.375 -0.43749991059303
v 0.37499991059303 -0.01512098032981 -0.19758050143719
v 0.43965509533882 -0.00000000005557 -0.1443963944912
v 0.49999979138374 0 0.18750010430813
v 0.62499982118607 -0.125 -0.06249986961484
v -0.44856458902359 -0.00717695709318 -0.14324170351028
v -0.62500011920929 0.875 0.56249988079071
v -0.37499991059303 -0.375 -0.43750008940697
v -0.43965530395508 0.00000000027549 -0.14439660310745
v -0.375 -0.01512098964304 -0.19758079946041
v -0.5 0 0.18749989569187
v -0.625 -0.125 -0.06250012665987
# 14 vertices

vn 0.4850706756115 0.48507153987885 -0.72760707139969
vn 0.48507115244865 0.48507115244865 -0.72760701179504
vn 0.48507124185562 0.48507130146027 -0.72760683298111
vn 0.48507139086723 0.4850709438324 -0.72760701179504
vn 0.48507153987885 0.48507061600685 -0.72760713100433
vn -0.94868332147598 0.00000006790989 0.3162277340889
vn -0.51635175943375 -0.68483990430832 0.51417422294617
vn 0.12309138476849 -0.86164039373398 0.4923660159111
vn -0.92827922105789 -0.20628418028355 0.30942615866661
vn 0.59587979316711 0.42562818527222 -0.6810051202774
vn 0.75907200574875 -0.34503284096718 0.55205255746841
vn -0.48507183790207 0.48507100343704 -0.72760665416718
vn -0.48507091403008 0.48507139086723 -0.72760701179504
vn -0.48507210612297 0.48507082462311 -0.72760659456253
vn -0.48507145047188 0.48507103323936 -0.72760689258575
vn 0.94868326187134 0.00000011318316 0.31622782349586
vn 0.55382370948792 -0.6933970451355 0.46095529198647
vn 0.56980288028717 -0.45584219694138 0.68376356363297
vn 0.47895589470863 -0.85722219944 0.18913315236568
vn -0.59587943553925 0.42562830448151 -0.68100529909134
vn -0.75907212495804 -0.34503284096718 0.55205237865448
# 21 normals

vt -0.25928270816803 0.87269800901413 0
vt -0.21144899725914 0.42807984352112 0
vt -0.21530939638615 0.43573260307312 0
vt -0.19150480628014 0.24269664287567 0
vt -0.21220380067825 0.40662622451782 0
vt -0.21200850605965 0.42918908596039 0
vt 0.16067670285702 -0.00072002410889 0
vt 0 0 0
vt -0.13727959990501 0.32856166362762 0
vt 0.65721708536148 0.03325653076172 0
vt 0.88836532831192 0.0241721868515 0
vt 1 0 0
vt 0.80453681945801 -0.05183172225952 0
vt 0.23819319903851 0.17230439186096 0
vt 0.05984107032418 0.22527873516083 0
vt 0.63486158847809 0.22066867351532 0
vt 0.8749942779541 -0.04913854598999 0
vt 1.11090695858002 0.3422988653183 0
# 18 texture coordinates

o Mesh4
usemtl Gray1
f 19/39/27 20/40/28 5/41/27
f 20/40/28 21/42/29 22/43/30
f 20/40/28 22/43/30 23/44/31
f 5/45/32 24/46/32 19/47/32
f 21/48/33 25/49/34 24/50/33
f 21/48/33 24/50/33 22/51/35
f 25/52/36 21/53/36 19/54/36
f 24/50/37 25/55/37 19/56/37
f 26/40/38 27/39/39 10/41/39
f 28/42/40 26/40/38 29/44/40
f 28/42/40 29/44/40 30/43/41
f 31/46/42 10/45/42 27/47/42
f 32/49/43 28/48/44 30/51/43
f 32/49/43 30/51/43 31/50/45
f 28/53/46 32/52/46 27/54/46
f 32/55/47 31/50/47 27/56/47

